<mxfile host="app.diagrams.net" modified="2023-06-06T13:01:17.604Z" agent="Mozilla/5.0 (X11; Linux x86_64) AppleWebKit/537.36 (KHTML, like Gecko) Chrome/108.0.0.0 Safari/537.36" version="21.3.7" etag="rqk_JoL0kzjpekA3BUCq" type="github">
  <diagram name="PÃ¡gina-1" id="GrHP9D3zxr1qY88e_oCi">
    <mxGraphModel>
      <root>
        <mxCell id="0" />
        <mxCell id="1" parent="0" />
      </root>
    </mxGraphModel>
  </diagram>
</mxfile>
